<svg xmlns="http://www.w3.org/2000/svg" width="17.018" height="17.034" viewBox="0 0 17.018 17.034">
  <g id="offer-icon" transform="translate(0.003 0)">
    <path id="Subtraction_1" data-name="Subtraction 1" d="M10.6,17.035A2.42,2.42,0,0,1,9.56,16.8a2.443,2.443,0,0,0-2.093,0,2.42,2.42,0,0,1-1.045.236A2.449,2.449,0,0,1,4.2,15.61l-.021-.046A2.438,2.438,0,0,0,2.6,14.225l-.054-.014A2.449,2.449,0,0,1,.824,11.228l.032-.119A2.44,2.44,0,0,0,.5,9.1l-.071-.1a2.452,2.452,0,0,1,.6-3.379l.08-.057a2.437,2.437,0,0,0,1.02-1.783l.008-.094a2.456,2.456,0,0,1,2.43-2.235c.073,0,.147,0,.221.01l.017,0c.072.006.145.01.217.01A2.456,2.456,0,0,0,6.763.739L6.772.73a2.442,2.442,0,0,1,3.482,0l.01.009A2.456,2.456,0,0,0,12,1.469c.072,0,.145,0,.217-.01l.017,0c.073-.007.147-.01.221-.01a2.456,2.456,0,0,1,2.43,2.235l.008.094a2.437,2.437,0,0,0,1.02,1.783l.08.057a2.452,2.452,0,0,1,.6,3.379l-.071.1a2.44,2.44,0,0,0-.352,2.012l.031.119a2.448,2.448,0,0,1-1.721,2.982l-.054.014a2.438,2.438,0,0,0-1.58,1.339l-.021.046A2.45,2.45,0,0,1,10.6,17.035ZM10.088,4.791a.523.523,0,0,0-.468.287L6.47,11.264a.525.525,0,0,0,.936.477l3.15-6.187a.525.525,0,0,0-.468-.763Zm1.575,4.668a1.05,1.05,0,1,0,1.049,1.049A1.051,1.051,0,0,0,11.663,9.459Zm-6.3-4.2a1.05,1.05,0,1,0,1.05,1.05A1.051,1.051,0,0,0,5.363,5.259Z" transform="translate(-0.007 0)" fill="#93288e"/>
  </g>
</svg>
